# xmcd CD database file
#
# Track frame offsets:
#	150
#	21243
#	46207
#	68811
#	92737
#	112298
#	136408
#	158836
#	179529
#	201323
#
# Disc length: 3239 seconds
#
# Revision: 0
# Processed by: cddbd v1.5.2PL0 Copyright (c) Steve Scherf et al.
# Submitted via: CDex 1.70beta2
#
DISCID=900ca50a
DTITLE=Era - Reborn
DYEAR=2008
DGENRE=New Age
TTITLE0=Sinfoni Deo (Inspired By The Ave Maria Of Caccini)
TTITLE1=Reborn
TTITLE2=Dark Voices
TTITLE3=Come Into My World
TTITLE4=Prayers
TTITLE5=Thousand Words
TTITLE6=After Thousand Words
TTITLE7=Kilimandjaro
TTITLE8=Last Song
TTITLE9=Come Into My World [Remix]
EXTD=YEAR: 2008
EXTT0=
EXTT1=
EXTT2=
EXTT3=
EXTT4=
EXTT5=
EXTT6=
EXTT7=
EXTT8=
EXTT9=
PLAYORDER=
